<?xml version="1.0" encoding="UTF-8"?>
<svg xmlns="http://www.w3.org/2000/svg" version="1.1" viewBox="0 0 113.9 123.6">
  <!-- Generator: Adobe Illustrator 30.1.0, SVG Export Plug-In . SVG Version: 2.1.1 Build 136)  -->
  <defs>
    <style>
      .st0 {
        fill: #0047ba;
      }

      .st1 {
        fill: #2a7de1;
      }

      .st2 {
        stroke-width: .5px;
      }

      .st2, .st3 {
        fill: none;
        stroke: #e6e7e8;
        stroke-miterlimit: 10;
      }

      .st4 {
        display: none;
      }

      .st3 {
        stroke-width: .8px;
      }
    </style>
  </defs>
  <g id="Clearspace" class="st4">
    <rect class="st3" x="23.9" y="25.9" width="66.1" height="23.9"/>
    <rect class="st2" x="0" y="2" width="23.9" height="23.9"/>
    <rect class="st2" x="90" y="2" width="23.9" height="23.9"/>
    <rect class="st2" x="0" y="97.7" width="23.9" height="23.9"/>
    <rect class="st2" x="90" y="97.7" width="23.9" height="23.9"/>
    <rect class="st3" x="23.9" y="49.8" width="66.1" height="23.9"/>
    <rect class="st3" x="23.9" y="73.6" width="66.1" height="23.9"/>
  </g>
  <g id="Logo">
    <g>
      <path class="st0" d="M42.5,70.3l-7.5-4.4c-.9-.5-1.9-.5-2.8,0l-26.5,15.3-4.2,2.4c-2,1.1-2,3.9,0,5.1l4.2,2.4.5.3,5.7,3.3c1.9,1.1,4.2,1.1,6.1,0l24.4-14.1c.7-.4,1.2-1.2,1.2-2.1v-6.2c0-.9-.5-1.7-1.2-2.1Z"/>
      <path class="st1" d="M64.7,83.1l-7.7-4.4-5.5-3.2-.9-.5c-1.3-.7-2.9.2-2.9,1.7v35.2c0,2.2,1.2,4.2,3.1,5.3l6.1,3.5,4.4,2.5c2,1.1,4.4-.3,4.4-2.5v-35.9c0-.7-.4-1.3-1-1.7Z"/>
      <path class="st1" d="M49.2,66.6c4.9-2.8,9.7-5.6,14.6-8.4,0,0,0,0,0,0l1.3-.7c.3-.2.5-.5.5-.9V11.8c0-2.2-1.2-4.2-3.1-5.3l-6-3.5-4.5-2.6c-2-1.1-4.4.3-4.4,2.5v41.6c0,.8-.9,1.3-1.6.9l-2.4-1.4L14.6,27.3l-4.5-2.6c-2-1.1-4.4.3-4.4,2.5v12.8c0,1.9,1,3.6,2.6,4.6l30.4,17.6,5,2.9c1,.6,2.1,1.2,3.1,1.8.2,0,.5.2,1,.3.7,0,1.2-.3,1.4-.4Z"/>
      <path class="st0" d="M112.4,35.2l-4.4-2.6-1-.6-.3-.2-4.8-2.8c-1.9-1.1-4.2-1.1-6.1,0l-25.2,14.6c-.6.3-.9.9-.9,1.6v6.3c0,1.1.6,2.2,1.6,2.7l7.1,4.1c.8.5,1.9.5,2.7,0l3.9-2.2,21.8-12.6.3-.2,5.4-3.1c2-1.1,2-3.9,0-5.1Z"/>
      <path class="st1" d="M104.7,79.3l-24.5-14.1-2.4-1.4-3.1-1.8c-.8-.5-1.6-.9-2.4-1.4-.4-.3-.9-.5-1.3-.8,0,0-.4-.2-.8-.2-.3,0-.6.2-.7.2l-16.3,9.4c-.2.1-.4.4-.4.7,0,.4.4.6.4.6,1.1.6,2.2,1.3,3.3,1.9l5.5,3.2h0l3.5,2,4,2.3,28.9,16.7,4.7,2.7c2.2,1.3,5-.3,5-2.9v-11c0-2.5-1.4-4.9-3.5-6.1Z"/>
    </g>
  </g>
</svg>