<?xml version="1.0" encoding="UTF-8"?>
<svg id="Layer_2" data-name="Layer 2" xmlns="http://www.w3.org/2000/svg" viewBox="0 0 689.96 169.73">
  <defs>
    <style>
      .cls-1 {
        fill: #0047ba;
      }

      .cls-2 {
        fill: #2a7de1;
      }

      .cls-3 {
        fill: #ff671d;
      }

      .cls-4 {
        fill: #24272a;
      }
    </style>
  </defs>
  <g id="Layer_1-2" data-name="Layer 1">
    <g>
      <g>
        <path class="cls-1" d="M58.33,96.5l-10.35-6c-1.19-.69-2.65-.69-3.83,0L7.82,111.47l-5.81,3.35c-2.68,1.55-2.68,5.41,0,6.96l5.81,3.35.72.41,7.87,4.55c2.61,1.51,5.83,1.51,8.44,0l33.5-19.35c1.03-.59,1.65-1.68,1.65-2.86v-8.46c0-1.2-.64-2.31-1.68-2.91"/>
        <path class="cls-2" d="M88.8,114.08l-10.56-6.09-7.55-4.38-1.18-.68c-1.79-1.02-4.02.27-4.02,2.33v48.3c0,3.01,1.6,5.8,4.21,7.3l8.41,4.86,6.01,3.46c2.68,1.54,6.02-.39,6.02-3.48v-49.3c0-.96-.51-1.85-1.35-2.33"/>
        <path class="cls-2" d="M67.52,91.48c6.68-3.85,13.35-7.7,20.03-11.55.03-.02.06-.04.09-.06l1.77-1.02c.46-.26.74-.75.74-1.28V16.16c0-3.01-1.61-5.8-4.22-7.31l-8.22-4.74-6.19-3.58c-2.68-1.55-6.02.39-6.02,3.48v57.13c0,1.13-1.22,1.84-2.2,1.27l-3.28-1.89-40-23.09-6.16-3.56c-2.68-1.55-6.03.38-6.03,3.48v17.56c0,2.58,1.38,4.96,3.61,6.25l41.75,24.1,6.83,3.95c1.42.81,2.83,1.63,4.24,2.45.27.14.73.33,1.33.35.97.04,1.67-.37,1.94-.55"/>
        <path class="cls-1" d="M154.34,48.38l-6.09-3.51-1.33-.77-.39-.23-6.59-3.8c-2.61-1.51-5.82-1.51-8.43,0l-34.67,20c-.77.45-1.25,1.27-1.25,2.16v8.67c0,1.54.82,2.97,2.16,3.74l9.69,5.6c1.16.67,2.6.67,3.77,0l5.34-3.08,29.98-17.29.39-.23,7.42-4.29c2.68-1.55,2.68-5.41,0-6.96"/>
        <path class="cls-2" d="M143.81,108.92l-33.61-19.39-3.26-1.88-4.28-2.49c-1.09-.63-2.19-1.27-3.28-1.9-.6-.35-1.2-.69-1.79-1.04-.13-.09-.51-.31-1.04-.3-.47.01-.81.21-.95.3l-22.37,12.92c-.32.19-.51.54-.49.91.02.55.49.83.52.84,1.51.88,3.02,1.75,4.53,2.62l7.56,4.37h.02l4.78,2.76,5.45,3.15,39.72,22.95,6.45,3.69c3.08,1.75,6.9-.46,6.9-4.01v-15.06c0-3.48-1.85-6.69-4.86-8.42"/>
      </g>
      <g>
        <path class="cls-4" d="M228.06,79.66c0-4.11.75-7.62,2.29-10.51,1.5-2.9,3.61-5.08,6.26-6.58,2.68-1.5,5.76-2.22,9.23-2.22,5.18,0,9.23,1.57,12.19,4.79,2.93,3.18,4.4,7.65,4.4,13.45v53.5h24.64v-57.86c0-7.22-1.29-13.45-3.86-18.63-2.61-5.22-6.26-9.19-11.02-11.95-4.72-2.75-10.27-4.15-16.59-4.15-7.8,0-14.17,2.11-19.14,6.37-3.83,3.25-6.94,7.51-9.3,12.81l-.25-17.85h-23.57v91.27h24.71v-52.43Z"/>
        <path class="cls-4" d="M538.99,91.93c0,4.11-.75,7.62-2.29,10.51-1.5,2.9-3.61,5.08-6.26,6.58-2.68,1.5-5.76,2.22-9.23,2.22-5.18,0-9.23-1.57-12.19-4.79-2.93-3.18-4.4-7.65-4.4-13.45v-53.5h-24.64v57.86c0,7.22,1.29,13.45,3.86,18.63,2.61,5.22,6.26,9.19,11.02,11.95,4.72,2.75,10.27,4.15,16.59,4.15,7.8,0,14.17-2.11,19.14-6.37,3.83-3.25,6.94-7.51,9.3-12.81l.25,17.85h23.57V39.5h-24.71v52.43Z"/>
        <path class="cls-4" d="M629.27,77.37l-16.52-3.29c-4.15-.82-7.12-2.04-8.94-3.61-1.82-1.57-2.72-3.51-2.72-5.83,0-2.76,1.32-5.01,4-6.73,2.68-1.75,6.08-2.61,10.19-2.61,4.47,0,8.05,1.04,10.73,3.11,2.65,2.08,4.4,4.72,5.15,7.97l22.07-3.07c-.86-5.22-2.97-9.76-6.22-13.63-3.29-3.86-7.62-6.83-13.02-8.94-5.4-2.08-11.8-3.11-19.17-3.11s-14.45,1.14-20.21,3.47c-5.76,2.29-10.23,5.58-13.41,9.83-3.15,4.22-4.75,9.23-4.75,15.02,0,6.9,2.21,12.52,6.62,16.88,4.4,4.33,11.01,7.44,19.85,9.23l15.77,3.15c3.93.82,6.87,2,8.8,3.54,1.97,1.5,2.93,3.43,2.93,5.79,0,2.76-1.32,5.04-4.04,6.83-2.68,1.79-6.4,2.68-11.09,2.68-4.94,0-8.91-1.07-11.87-3.22-3-2.15-5.01-5.33-6.04-9.51l-23.21,3.15c.93,5.79,3.18,10.76,6.79,14.88,3.61,4.15,8.29,7.29,14.05,9.48,5.76,2.18,12.37,3.25,19.81,3.25,7.97,0,15.05-1.25,21.17-3.76,6.15-2.5,10.98-6.01,14.45-10.51,3.47-4.47,5.18-9.73,5.18-15.74,0-6.55-2.15-11.87-6.47-15.95-4.33-4.08-10.94-7.01-19.88-8.76"/>
        <polygon class="cls-4" points="470.84 39.9 445.6 39.9 428.97 66.1 412.35 39.9 387.11 39.9 416.35 86 387.11 132.09 412.35 132.09 428.97 105.89 445.6 132.09 470.84 132.09 441.59 86 470.84 39.9"/>
        <path class="cls-4" d="M380.22,65.73c-1.66-5.42-4.22-10.26-7.67-14.51-3.45-4.25-7.8-7.58-13.03-9.98-5.24-2.4-11.37-3.61-18.39-3.61-7.39,0-13.8,1.33-19.22,3.97-5.42,2.65-9.86,6.26-13.31,10.81-3.45,4.56-6.01,9.7-7.67,15.43-1.66,5.73-2.5,11.62-2.5,17.65s.86,11.86,2.59,17.47c1.72,5.61,4.37,10.63,7.95,15.06,3.57,4.44,8.16,7.89,13.77,10.35,5.61,2.46,12.23,3.7,19.87,3.7,5.18,0,9.83-.49,13.95-1.48,4.13-.98,8.1-2.52,11.92-4.62,3.82-2.09,7.64-4.87,11.46-8.32l-11.28-13.68c-3.45,3.45-7.27,5.98-11.46,7.58-4.19,1.6-8.81,2.4-13.86,2.4-6.9,0-12.57-1.91-17.01-5.73-4.44-3.82-6.9-9.36-7.39-16.64h63.21c.25-1.6.4-3.2.46-4.81.06-1.6.09-2.83.09-3.7,0-6.16-.83-11.95-2.5-17.37ZM318.58,76.46c.37-3.82,1.45-7.36,3.23-10.63,1.79-3.26,4.31-5.94,7.58-8.04,3.26-2.09,7.3-3.14,12.11-3.14,3.45,0,6.53.59,9.24,1.76,2.71,1.17,4.99,2.71,6.84,4.62,1.85,1.91,3.23,4.1,4.16,6.56.92,2.47,1.39,5.05,1.39,7.76,0,.37-.03.74-.03,1.11h-44.51Z"/>
        <rect class="cls-3" x="666.07" y="106.88" width="23.89" height="23.89"/>
      </g>
    </g>
  </g>
</svg>