<?xml version="1.0" encoding="UTF-8"?>
<svg id="Layer_1" xmlns="http://www.w3.org/2000/svg" version="1.1" viewBox="0 0 419.4 86.6">
  <!-- Generator: Adobe Illustrator 30.1.0, SVG Export Plug-In . SVG Version: 2.1.1 Build 136)  -->
  <defs>
    <style>
      .st0 {
        fill: #fff;
      }

      .st1 {
        fill: none;
        stroke: #e6e7e8;
        stroke-miterlimit: 10;
      }

      .st2 {
        display: none;
      }
    </style>
  </defs>
  <g id="Clearspace" class="st2">
    <rect class="st1" x="35.8" y="7.4" width="347.8" height="35.8"/>
    <rect class="st1" x="35.8" y="43.2" width="347.8" height="35.8"/>
    <rect class="st1" y="-28.4" width="419.4" height="143.4"/>
    <rect class="st1" x="383.6" y="79.2" width="35.8" height="35.8"/>
    <rect class="st1" x="383.6" y="-28.4" width="35.8" height="35.8"/>
    <rect class="st1" y="-28.4" width="35.8" height="35.8"/>
    <rect class="st1" y="79.2" width="35.8" height="35.8"/>
  </g>
  <g id="Logo">
    <g>
      <g>
        <path class="st0" d="M29.8,49.2l-5.3-3.1c-.6-.4-1.4-.4-2,0l-18.5,10.8-3,1.7c-1.4.8-1.4,2.8,0,3.6l3,1.7.4.2,4,2.3c1.3.8,3,.8,4.3,0l17.1-9.9c.5-.3.8-.9.8-1.5v-4.3c0-.6-.3-1.2-.9-1.5h.1Z"/>
        <path class="st0" d="M45.3,58.2l-5.4-3.1-3.9-2.2-.6-.3c-.9-.5-2.1,0-2.1,1.2v24.6c0,1.5.8,3,2.1,3.7l4.3,2.5,3.1,1.8c1.4.8,3.1-.2,3.1-1.8v-25.1c0-.5-.3-.9-.7-1.2h.1Z"/>
        <path class="st0" d="M34.4,46.7c3.4-2,6.8-3.9,10.2-5.9h0l.9-.5c.2,0,.4-.4.4-.6V8.2c0-1.5-.8-3-2.2-3.7l-4.2-2.4-3.2-1.8c-1.4-.8-3.1.2-3.1,1.8v29.1c0,.6-.6.9-1.1.6l-1.7-1-20.4-11.8-3.1-1.8c-1.4-.8-3.1.2-3.1,1.8v9c0,1.3.7,2.5,1.8,3.2l21.3,12.3,3.5,2c.7.4,1.4.8,2.2,1.2,0,0,.4.2.7.2.5,0,.9-.2,1-.3h0Z"/>
        <path class="st0" d="M78.7,24.7l-3.1-1.8-.7-.4h-.2c0-.1-3.4-2.1-3.4-2.1-1.3-.8-3-.8-4.3,0l-17.7,10.2c-.4.2-.6.6-.6,1.1v4.4c0,.8.4,1.5,1.1,1.9l4.9,2.9c.6.3,1.3.3,1.9,0l2.7-1.6,15.3-8.8h.2c0-.1,3.8-2.3,3.8-2.3,1.4-.8,1.4-2.8,0-3.6h0Z"/>
        <path class="st0" d="M73.4,55.6l-17.1-9.9-1.7-1-2.2-1.3c-.6-.3-1.1-.6-1.7-1-.3-.2-.6-.4-.9-.5,0,0-.3-.2-.5-.2s-.4,0-.5.2l-11.4,6.6c-.2,0-.3.3-.2.5,0,.3.2.4.3.4.8.4,1.5.9,2.3,1.3l3.9,2.2h0l2.4,1.4,2.8,1.6,20.3,11.7,3.3,1.9c1.6.9,3.5-.2,3.5-2v-7.7c0-1.8-.9-3.4-2.5-4.3h0Z"/>
      </g>
      <g>
        <path class="st0" d="M170.9,27.3c-2.7,0-5,.7-7,2.2s-3.4,3.6-4.2,6.4h-.4v-8.1h-12.2v46.6h12.6v-26.2c0-2,.4-3.8,1.3-5.3.8-1.5,2-2.6,3.5-3.5,1.5-.8,3.2-1.2,5-1.2s2,0,3.1,0c1.1,0,1.8.2,2.4.4v-11.1c-.5-.1-1.2-.2-1.9-.3h-2.2Z"/>
        <path class="st0" d="M211.8,54.5c0,2.1-.4,3.9-1.2,5.4s-1.8,2.6-3.2,3.4-2.9,1.1-4.7,1.1c-2.6,0-4.7-.8-6.2-2.4-1.5-1.6-2.2-3.9-2.2-6.9v-27.3h-12.6v29.5c0,3.7.7,6.9,2,9.5,1.3,2.7,3.2,4.7,5.6,6.1,2.4,1.4,5.2,2.1,8.5,2.1s7.2-1.1,9.8-3.2c2-1.7,3.5-3.8,4.7-6.5v9.1h12.1V27.8h-12.6v26.7h0Z"/>
        <path class="st0" d="M260.7,47.4l-8.4-1.7c-2.1-.4-3.6-1-4.6-1.8-.9-.8-1.4-1.8-1.4-3s.7-2.6,2-3.4c1.4-.9,3.1-1.3,5.2-1.3s4.1.5,5.5,1.6c1.3,1.1,2.2,2.4,2.6,4.1l11.3-1.6c-.4-2.7-1.5-5-3.2-7s-3.9-3.5-6.6-4.6c-2.8-1.1-6-1.6-9.8-1.6s-7.4.6-10.3,1.8c-2.9,1.2-5.2,2.8-6.8,5s-2.4,4.7-2.4,7.7,1.1,6.4,3.4,8.6c2.2,2.2,5.6,3.8,10.1,4.7l8,1.6c2,.4,3.5,1,4.5,1.8s1.5,1.8,1.5,3-.7,2.6-2.1,3.5-3.3,1.4-5.7,1.4-4.5-.5-6.1-1.6c-1.5-1.1-2.6-2.7-3.1-4.9l-11.8,1.6c.5,3,1.6,5.5,3.5,7.6,1.8,2.1,4.2,3.7,7.2,4.8,2.9,1.1,6.3,1.7,10.1,1.7s7.7-.6,10.8-1.9,5.6-3.1,7.4-5.4,2.6-5,2.6-8-1.1-6.1-3.3-8.1c-2.2-2.1-5.6-3.6-10.1-4.5h0Z"/>
        <path class="st0" d="M123.1,10.1h-12.6v17.7h-6.8v9.7h6.8v24.4c0,4.2,1.2,7.5,3.7,9.7,2.1,1.9,5.1,3,8.9,3.2v-37.3h17v-9.7h-17s0-17.7,0-17.7Z"/>
        <polygon class="st0" points="277.4 37.9 286.7 37.9 286.7 47.9 286.7 64.4 286.7 74.8 297.2 74.8 299.6 74.8 299.6 47.9 299.6 37.9 308.9 37.9 308.9 27.7 277.4 27.7 277.4 37.9"/>
        <path class="st0" d="M350.8,29.8c-3.7-2-8.1-3-13.2-3s-9.6,1-13.3,3c-3.8,2-6.7,4.8-8.7,8.5-2,3.6-3.1,8-3.1,12.9s1,9.3,3.1,13c2.1,3.6,5,6.5,8.7,8.5,3.8,2,8.1,3,13.2,3s9.5-1,13.2-3c3.8-2,6.6-4.8,8.7-8.5,2-3.7,3-8,3-13s-1-9.4-3-13c-2-3.7-4.9-6.5-8.6-8.5h0ZM346.5,60.8c-2.1,2.4-5.1,3.6-8.9,3.6s-6.9-1.2-9-3.6c-2.1-2.4-3.1-5.6-3.1-9.7s1-7.3,3.1-9.6c2.1-2.3,5.1-3.5,9-3.5s6.9,1.2,8.9,3.5c2.1,2.3,3.1,5.5,3.1,9.6s-1,7.3-3.1,9.7Z"/>
        <path class="st0" d="M388.1,29.6c-2.7,1.6-4.7,4.1-5.9,7.4h-3.2v-9.2h-13v12.9h6.4v34.2h12.7v-23.7c0-3.8.9-6.8,2.8-9.1,1.9-2.3,4.9-3.4,8.9-3.4h4.5v-11.3h-4c-3.4,0-6.4.8-9.1,2.4v-.2Z"/>
        <rect class="st0" x="406.5" y="27.7" width="12.9" height="47"/>
        <rect class="st0" x="287.1" y="10.1" width="12.6" height="12.6"/>
        <polygon class="st0" points="127.5 64.1 127.5 64.7 127.5 74.8 127.5 74.9 129.9 74.9 138.3 74.9 140.1 74.9 140.1 62.2 127.5 62.2 127.5 64.1"/>
        <rect class="st0" x="406.7" y="10.1" width="12.6" height="12.6"/>
      </g>
    </g>
  </g>
</svg>